<?xml version="1.0" standalone="no"?>
<!DOCTYPE svg PUBLIC "-//W3C//DTD SVG 20010904//EN"
 "http://www.w3.org/TR/2001/REC-SVG-20010904/DTD/svg10.dtd">
<svg version="1.0" xmlns="http://www.w3.org/2000/svg"
 width="512.000000pt" height="512.000000pt" viewBox="0 0 512.000000 512.000000"
 preserveAspectRatio="xMidYMid meet">
<metadata>
Created by potrace 1.14, written by Peter Selinger 2001-2017
</metadata>
<g transform="translate(0.000000,512.000000) scale(0.100000,-0.100000)"
fill="#000000" stroke="none">
<path d="M1574 4720 c-132 -20 -234 -152 -242 -315 -15 -298 270 -493 483
-330 109 83 154 259 104 407 -56 167 -192 261 -345 238z"/>
<path d="M825 4520 c-238 -54 -299 -390 -108 -585 73 -73 132 -99 228 -100 91
0 131 15 191 73 91 89 116 247 60 385 -65 158 -231 259 -371 227z"/>
<path d="M2279 4367 c-92 -35 -146 -87 -190 -183 -82 -182 -5 -421 159 -491
201 -87 414 85 413 333 0 145 -70 267 -186 326 -50 26 -147 33 -196 15z"/>
<path d="M359 3829 c-60 -17 -130 -78 -164 -144 -26 -51 -30 -69 -29 -139 0
-96 14 -141 66 -221 96 -146 272 -210 408 -147 71 32 139 117 155 190 36 173
-65 370 -227 442 -54 23 -157 33 -209 19z"/>
<path d="M1455 3815 c-250 -55 -408 -202 -494 -460 -27 -81 -42 -160 -87 -440
-2 -16 -6 -41 -9 -55 -16 -90 -19 -124 -19 -200 0 -100 22 -156 86 -220 64
-64 136 -93 227 -94 89 0 146 22 210 80 43 38 89 107 96 143 19 99 96 182 199
212 130 39 201 27 326 -56 96 -64 139 -78 235 -78 106 0 200 54 257 148 66
108 61 243 -13 350 -42 62 -345 415 -398 463 -202 189 -400 255 -616 207z"/>
<path d="M3219 2556 c-86 -31 -152 -92 -185 -172 -22 -53 -26 -70 -29 -144 -9
-202 128 -372 303 -377 74 -2 112 9 164 47 126 91 172 260 117 429 -53 162
-232 267 -370 217z"/>
<path d="M3985 2557 c-242 -79 -316 -434 -129 -621 74 -74 205 -96 301 -51
210 97 270 415 110 592 -69 76 -189 110 -282 80z"/>
<path d="M2610 2021 c-105 -32 -175 -114 -203 -238 -51 -223 118 -458 328
-456 245 3 366 322 209 551 -80 115 -223 176 -334 143z"/>
<path d="M4590 2013 c-226 -79 -319 -394 -171 -581 133 -167 377 -129 494 78
153 271 -56 597 -323 503z"/>
<path d="M3620 1718 c-201 -21 -341 -105 -471 -281 -66 -88 -92 -140 -255
-507 -68 -152 -69 -156 -69 -240 0 -73 4 -92 27 -135 47 -89 130 -153 224
-173 67 -15 127 -6 200 27 59 28 91 58 166 160 19 25 54 55 83 70 45 23 61 26
160 26 145 0 185 -19 268 -129 119 -157 262 -201 413 -126 123 60 189 179 177
317 -5 63 -226 563 -296 670 -123 188 -290 301 -471 319 -33 3 -65 6 -71 8 -5
1 -44 -2 -85 -6z"/>
</g>
</svg>
